<svg width="79" height="102" viewBox="0 0 79 102" fill="none" xmlns="http://www.w3.org/2000/svg">
<path d="M10.9841 30.0233C14.0411 30.0233 16.5225 27.5372 16.5225 24.4849C16.5225 21.4326 14.0365 18.9465 10.9841 18.9465C7.93183 18.9465 5.4458 21.4326 5.4458 24.4849C5.4458 27.5372 7.93183 30.0233 10.9841 30.0233ZM10.9841 20.5533C13.1525 20.5533 14.9112 22.3165 14.9112 24.4803C14.9112 26.6441 13.1479 28.4073 10.9841 28.4073C8.82036 28.4073 7.05713 26.6441 7.05713 24.4803C7.05713 22.3165 8.82036 20.5533 10.9841 20.5533Z" fill="#060425"/>
<path d="M32.415 33.2414V37.8683C32.415 38.9594 33.3036 39.8479 34.3993 39.8479H53.8181C54.9092 39.8479 55.8023 38.9594 55.8023 37.8683V33.2414C55.8023 27.3072 50.9729 22.4778 45.0387 22.4778H43.1787C37.2444 22.4778 32.415 27.3072 32.415 33.2414ZM43.1787 24.0385H45.0387C50.112 24.0385 54.2416 28.1681 54.2416 33.2414V37.8683C54.2416 38.103 54.0529 38.2918 53.8181 38.2918H34.3993C34.1645 38.2918 33.9757 38.103 33.9757 37.8683V33.2414C33.9757 28.1681 38.1053 24.0385 43.1787 24.0385Z" fill="#060425"/>
<path d="M50.5354 14.5087C50.5354 10.9638 47.6535 8.08179 44.1085 8.08179C40.5636 8.08179 37.6816 10.9638 37.6816 14.5087C37.6816 18.0536 40.5636 20.9356 44.1085 20.9356C47.6535 20.9356 50.5354 18.0536 50.5354 14.5087ZM39.2377 14.5087C39.2377 11.8247 41.4245 9.63787 44.1085 9.63787C46.7926 9.63787 48.9794 11.8247 48.9794 14.5087C48.9794 17.1927 46.7926 19.3795 44.1085 19.3795C41.4245 19.3795 39.2377 17.1927 39.2377 14.5087Z" fill="#060425"/>
<path d="M21.1724 78.9756H24.4226L26.0202 74.6986H33.7085L35.306 78.9756H38.7726L31.6 60.0264H28.3497L21.177 78.9756H21.1724ZM32.6496 71.8811H27.0744L29.8873 64.0869L32.6496 71.8811Z" fill="#060425"/>
<path d="M45.5725 60.0264H42.3223V78.9756H45.5725V60.0264Z" fill="#060425"/>
<path d="M75.6581 0.434814H13.4287C11.6378 0.434814 10.183 1.88961 10.183 3.68049V14.3797H11.7944V3.68049C11.7944 2.77814 12.5263 2.04614 13.4287 2.04614H75.6581C76.5605 2.04614 77.2925 2.77814 77.2925 3.68049V45.6348C77.2925 46.5372 76.5605 47.2692 75.6581 47.2692H54.14L57.9151 57.043L40.6003 47.2692H13.4287C12.5263 47.2692 11.7944 46.5372 11.7944 45.6348V34.3878H10.183V41.0449H3.33258C1.54171 41.0449 0.0869141 42.4997 0.0869141 44.2905V86.2449C0.0869141 88.0358 1.54171 89.4905 3.33258 89.4905H20.2009L15.6523 101.267L36.5167 89.4905H65.5666C67.3575 89.4905 68.8123 88.0358 68.8123 86.2449V56.8865H67.201V86.2449C67.201 87.1472 66.469 87.8792 65.5666 87.8792H36.0932L18.7783 97.6531L22.5534 87.8792H3.33719C2.43485 87.8792 1.70285 87.1472 1.70285 86.2449V44.2905C1.70285 43.3882 2.43485 42.6562 3.33719 42.6562H10.1876V45.6302C10.1876 47.4211 11.6424 48.8759 13.4333 48.8759H40.1813L61.0457 60.6524L56.4971 48.8759H75.6673C77.4582 48.8759 78.913 47.4211 78.913 45.6302V3.68049C78.913 1.88961 77.4582 0.434814 75.6673 0.434814H75.6581Z" fill="#060425"/>
</svg>
