<svg width="30" height="30" viewBox="0 0 30 30" fill="none" xmlns="http://www.w3.org/2000/svg">
<circle cx="15" cy="15" r="15" fill="#FF3B26"/>
<g clip-path="url(#clip0_5101_2231)">
<path d="M19.8362 19.0124L15.7149 14.8911L19.8362 10.7698C19.9455 10.6605 20.0069 10.5123 20.0069 10.3577C20.0069 10.2031 19.9455 10.0549 19.8362 9.94556V9.94556C19.7269 9.83625 19.5786 9.77485 19.4241 9.77485C19.2695 9.77485 19.1212 9.83625 19.0119 9.94556L14.8906 14.0669L10.7693 9.94556C10.66 9.83625 10.5118 9.77485 10.3572 9.77485C10.2026 9.77485 10.0544 9.83625 9.94507 9.94556V9.94556C9.83577 10.0549 9.77436 10.2031 9.77436 10.3577C9.77436 10.5123 9.83577 10.6605 9.94507 10.7698L14.0664 14.8911L9.94507 19.0124C9.83576 19.1217 9.77436 19.27 9.77436 19.4245C9.77436 19.5791 9.83577 19.7274 9.94507 19.8367C10.0544 19.946 10.2026 20.0074 10.3572 20.0074C10.5118 20.0074 10.66 19.946 10.7693 19.8367L14.8906 15.7154L19.0119 19.8367C19.1212 19.946 19.2695 20.0074 19.4241 20.0074C19.5786 20.0074 19.7269 19.946 19.8362 19.8367C19.9455 19.7274 20.0069 19.5791 20.0069 19.4245C20.0069 19.27 19.9455 19.1217 19.8362 19.0124Z" fill="#F8FCFD"/>
</g>
<defs>
<clipPath id="clip0_5101_2231">
<rect width="13.9881" height="13.9881" fill="white" transform="translate(14.8906 5) rotate(45)"/>
</clipPath>
</defs>
</svg>
