<svg width="19" height="14" viewBox="0 0 19 14" fill="none" xmlns="http://www.w3.org/2000/svg">
<path d="M16.625 0H2.375C1.74511 0 1.14102 0.250221 0.69562 0.69562C0.250221 1.14102 0 1.74511 0 2.375V11.2812C0 11.9111 0.250221 12.5152 0.69562 12.9606C1.14102 13.406 1.74511 13.6562 2.375 13.6562H16.625C17.2549 13.6562 17.859 13.406 18.3044 12.9606C18.7498 12.5152 19 11.9111 19 11.2812V2.375C19 1.74511 18.7498 1.14102 18.3044 0.69562C17.859 0.250221 17.2549 0 16.625 0ZM17.8125 11.2812C17.8125 11.5962 17.6874 11.8982 17.4647 12.1209C17.242 12.3436 16.9399 12.4688 16.625 12.4688H2.375C2.06006 12.4688 1.75801 12.3436 1.53531 12.1209C1.31261 11.8982 1.1875 11.5962 1.1875 11.2812V2.375C1.1875 2.06006 1.31261 1.75801 1.53531 1.53531C1.75801 1.31261 2.06006 1.1875 2.375 1.1875H16.625C16.9399 1.1875 17.242 1.31261 17.4647 1.53531C17.6874 1.75801 17.8125 2.06006 17.8125 2.375V11.2812Z" fill="#FF3B26"/>
<path d="M16.4887 3.18852C16.4393 3.12796 16.3784 3.07776 16.3095 3.04079C16.2406 3.00383 16.1651 2.98082 16.0873 2.9731C16.0096 2.96538 15.931 2.97308 15.8562 2.99578C15.7814 3.01849 15.7119 3.05574 15.6515 3.10539L9.50023 8.14039L3.34305 3.10539C3.28383 3.05001 3.21388 3.00734 3.13753 2.98002C3.06119 2.9527 2.98006 2.94131 2.89914 2.94655C2.81823 2.95179 2.73924 2.97355 2.66705 3.01048C2.59487 3.04741 2.53101 3.09874 2.47942 3.1613C2.42783 3.22386 2.38961 3.29632 2.3671 3.37422C2.34459 3.45211 2.33826 3.5338 2.34853 3.61423C2.35879 3.69466 2.38542 3.77214 2.42678 3.84189C2.46813 3.91164 2.52334 3.97217 2.58898 4.01976L9.12023 9.36351C9.22706 9.45203 9.3615 9.50035 9.50023 9.50008C9.63692 9.49898 9.76905 9.45074 9.8743 9.36351L16.4056 4.01976C16.5261 3.92009 16.6025 3.77688 16.618 3.62124C16.6336 3.46559 16.5871 3.31008 16.4887 3.18852Z" fill="#FF3B26"/>
<path d="M14.0714 7.8914C13.9602 7.78082 13.8097 7.71875 13.6528 7.71875C13.496 7.71875 13.3455 7.78082 13.2342 7.8914C13.1786 7.9466 13.1344 8.01227 13.1043 8.08463C13.0741 8.15698 13.0586 8.23459 13.0586 8.31297C13.0586 8.39135 13.0741 8.46895 13.1043 8.54131C13.1344 8.61366 13.1786 8.67933 13.2342 8.73453L15.6092 11.1095C15.6646 11.1645 15.7302 11.208 15.8024 11.2376C15.8746 11.2672 15.9519 11.2823 16.0299 11.282C16.1079 11.2818 16.1851 11.2661 16.2571 11.236C16.3291 11.2059 16.3944 11.1619 16.4494 11.1066C16.5044 11.0512 16.5479 10.9856 16.5775 10.9134C16.6071 10.8412 16.6222 10.7639 16.6219 10.6859C16.6216 10.6079 16.606 10.5307 16.5759 10.4587C16.5458 10.3867 16.5018 10.3214 16.4464 10.2664L14.0714 7.8914Z" fill="#FF3B26"/>
<path d="M4.94503 7.8914L2.57003 10.2664C2.45822 10.3774 2.39509 10.5283 2.39453 10.6859C2.39398 10.8434 2.45604 10.9948 2.56705 11.1066C2.67807 11.2184 2.82896 11.2815 2.98652 11.282C3.14408 11.2826 3.29541 11.2205 3.40721 11.1095L5.78221 8.73453C5.83787 8.67933 5.88204 8.61366 5.91218 8.54131C5.94232 8.46895 5.95784 8.39135 5.95784 8.31297C5.95784 8.23459 5.94232 8.15698 5.91218 8.08463C5.88204 8.01227 5.83787 7.9466 5.78221 7.8914C5.67097 7.78082 5.52048 7.71875 5.36362 7.71875C5.20676 7.71875 5.05627 7.78082 4.94503 7.8914Z" fill="#FF3B26"/>
</svg>
