<svg width="16" height="16" viewBox="0 0 16 16" fill="none" xmlns="http://www.w3.org/2000/svg">
<path d="M15.9484 7.1097C14.5825 3.91913 12.0327 1.38246 8.83511 0.0331232C8.70633 -0.0149495 8.56382 -0.0105488 8.43825 0.04537C8.31268 0.101289 8.21408 0.204261 8.16365 0.332137C8.13617 0.396127 8.12171 0.464949 8.12111 0.534586C8.12051 0.604222 8.13378 0.673276 8.16014 0.737731C8.18651 0.802185 8.22545 0.860745 8.27469 0.909994C8.32392 0.959243 8.38248 0.998193 8.44693 1.02458C11.3944 2.26984 13.7447 4.60885 15.0042 7.55035C15.0605 7.67509 15.1633 7.77288 15.2907 7.82287C15.4181 7.87285 15.56 7.87107 15.6861 7.81789C15.7507 7.78962 15.8089 7.74863 15.8573 7.69736C15.9057 7.6461 15.9432 7.58561 15.9677 7.51951C15.9922 7.45341 16.0031 7.38305 15.9998 7.31264C15.9965 7.24223 15.979 7.17321 15.9484 7.1097Z" fill="#FF3B26"/>
<path d="M8.1734 3.85801C9.96004 4.61056 11.3854 6.02647 12.1497 7.80809C12.1903 7.89598 12.2544 7.97092 12.335 8.02462C12.4155 8.07832 12.5094 8.10868 12.6061 8.11235C12.6769 8.11182 12.7468 8.0957 12.8107 8.06514C12.9313 8.00603 13.0247 7.9029 13.0715 7.77699C13.1184 7.65109 13.1151 7.51201 13.0625 7.38843C12.1961 5.36568 10.5789 3.75786 8.5511 2.90327C8.42623 2.85894 8.28921 2.86351 8.16758 2.91606C8.04594 2.96861 7.94869 3.06525 7.89538 3.18655C7.84606 3.31271 7.84746 3.45306 7.89928 3.57822C7.95111 3.70338 8.04933 3.80364 8.1734 3.85801Z" fill="#FF3B26"/>
<path d="M13.2248 10.0889C13.111 9.95598 12.9698 9.84928 12.8109 9.77611C12.652 9.70295 12.4791 9.66506 12.3041 9.66506C12.1292 9.66506 11.9563 9.70295 11.7974 9.77611C11.6385 9.84928 11.4973 9.95598 11.3835 10.0889C10.9533 10.5138 10.5232 10.944 10.0983 11.3794C10.0794 11.4074 10.055 11.4313 10.0267 11.4497C9.99834 11.4682 9.96658 11.4807 9.93329 11.4865C9.9 11.4924 9.86587 11.4915 9.83293 11.4839C9.79999 11.4763 9.76893 11.4622 9.74158 11.4423C9.46356 11.2902 9.16454 11.1695 8.897 11.0017C7.66931 10.206 6.58111 9.2135 5.67609 8.06404C5.20357 7.50697 4.81316 6.88516 4.51676 6.21751C4.48453 6.16216 4.47367 6.09691 4.48623 6.0341C4.49879 5.97129 4.53391 5.91524 4.58496 5.87653C5.01511 5.45687 5.43477 5.03196 5.85968 4.60181C5.99836 4.48662 6.10996 4.3423 6.18655 4.1791C6.26314 4.01591 6.30286 3.83784 6.30286 3.65756C6.30286 3.47729 6.26314 3.29923 6.18655 3.13603C6.10996 2.97284 5.99836 2.82851 5.85968 2.71332C5.52395 2.37234 5.18822 2.04186 4.84725 1.70089L3.79809 0.651727C3.68011 0.52533 3.53823 0.423612 3.38064 0.352473C3.22305 0.281334 3.0529 0.242186 2.88007 0.237305C2.70613 0.243038 2.53503 0.283066 2.37659 0.355082C2.21816 0.427099 2.0755 0.529688 1.95681 0.65697C1.52141 1.08188 1.10699 1.52252 0.661098 1.94219C0.268533 2.31243 0.0337043 2.81968 0.00538151 3.35856C-0.0319876 4.24232 0.12562 5.12347 0.467014 5.93949C1.12131 7.63583 2.06365 9.20641 3.25252 10.582C4.81603 12.461 6.76398 13.9832 8.9652 15.0462C9.94173 15.5621 11.0122 15.8761 12.1127 15.9694H12.3173C12.6532 15.9837 12.9881 15.9228 13.2976 15.7912C13.607 15.6596 13.8832 15.4606 14.1061 15.2088C14.4733 14.7944 14.8877 14.4167 15.2811 14.0232C15.4172 13.9075 15.5265 13.7636 15.6014 13.6015C15.6763 13.4393 15.7152 13.2629 15.7152 13.0843C15.7152 12.9056 15.6763 12.7292 15.6014 12.567C15.5265 12.4049 15.4172 12.261 15.2811 12.1453C14.6027 11.4598 13.9172 10.7744 13.2248 10.0889ZM14.5467 13.2941L14.1533 13.6823C13.8805 13.9446 13.6025 14.2069 13.3297 14.5164C13.2069 14.6591 13.0522 14.7711 12.8781 14.843C12.7041 14.915 12.5156 14.9451 12.3278 14.9308H12.1809C11.2159 14.8475 10.2775 14.571 9.42158 14.1177C7.35653 13.1134 5.52758 11.6831 4.05513 9.92104C2.93582 8.63999 2.04825 7.17373 1.43223 5.58802C1.14458 4.91597 1.00847 4.18881 1.03356 3.45822C1.04557 3.17752 1.1659 2.91241 1.36928 2.71857C1.64206 2.45628 1.89386 2.19399 2.17189 1.92645L2.69647 1.40187C2.71365 1.36639 2.74049 1.33648 2.77389 1.31554C2.80729 1.29461 2.84591 1.28351 2.88533 1.28351C2.92474 1.28351 2.96336 1.29461 2.99676 1.31554C3.03016 1.33648 3.05698 1.36639 3.07417 1.40187C3.30498 1.62744 3.53056 1.85825 3.75613 2.08907L4.10235 2.43529L4.62693 2.95987L5.12527 3.45822C5.31937 3.65232 5.30888 3.68904 5.12527 3.8674L4.94692 4.04576C4.5902 4.41296 4.22825 4.76968 3.85055 5.13688C3.65331 5.32424 3.51948 5.56851 3.46776 5.83559C3.41604 6.10267 3.449 6.37924 3.56204 6.62669C3.89312 7.38708 4.33507 8.0942 4.87349 8.725C5.85387 9.95829 7.03068 11.0217 8.35668 11.8725C8.56127 11.9984 8.77111 12.1033 8.95471 12.1925L9.23798 12.3341C9.4383 12.4524 9.66631 12.5157 9.89895 12.5177C10.0801 12.5168 10.2591 12.4781 10.4244 12.404C10.5897 12.3299 10.7377 12.2221 10.8589 12.0876C11.2733 11.6626 11.693 11.2482 12.1337 10.8128C12.1785 10.7544 12.2411 10.7121 12.312 10.6922C12.3854 10.7099 12.4503 10.7525 12.4956 10.8128C13.1951 11.5123 13.8945 12.1995 14.5939 12.8744C14.7146 13.058 14.7303 13.1052 14.5467 13.2941Z" fill="#FF3B26"/>
</svg>
