<svg width="753" height="761" viewBox="0 0 753 761" fill="none" xmlns="http://www.w3.org/2000/svg">
<line x1="385.506" y1="-1.09278e-08" x2="385.506" y2="760.783" stroke="#154954" stroke-opacity="0.56" stroke-width="0.5" stroke-dasharray="2 2"/>
<line x1="-2.18557e-08" y1="383.06" x2="753" y2="383.06" stroke="#154954" stroke-opacity="0.56" stroke-width="0.5" stroke-dasharray="2 2"/>
<g clip-path="url(#clip0_5101_10157)">
<path d="M385.651 436.982C419.561 437.182 446.892 409.627 446.697 375.435C446.502 341.244 418.855 313.365 384.945 313.165C351.036 312.965 323.705 340.521 323.9 374.712C324.095 408.903 351.742 436.783 385.651 436.982Z" fill="#FD451D"/>
<path d="M347.563 353.465L365.363 353.533C368.318 353.544 370.894 353.917 373.091 354.654C375.332 355.389 377.194 356.419 378.676 357.743C380.159 359.068 381.284 360.641 382.052 362.463C382.82 364.285 383.208 366.286 383.216 368.469C383.228 371.743 382.366 374.581 380.628 376.985C378.891 379.343 376.278 381.039 372.789 382.071L384.681 401.35L375.816 401.316L365.338 382.998L355.733 382.962L355.8 401.242L347.741 401.211L347.563 353.465ZM364.103 376.173C368.223 376.188 371.085 375.516 372.693 374.159C374.344 372.8 375.165 370.894 375.156 368.439C375.147 365.983 374.312 364.071 372.651 362.7C371.034 361.33 368.164 360.637 364.045 360.622L355.649 360.59L355.708 376.141L364.103 376.173ZM405.148 402.177C402.104 402.166 399.46 401.815 397.219 401.124C394.977 400.433 393.094 399.471 391.566 398.239C390.084 397.005 388.937 395.569 388.125 393.929C387.313 392.243 386.813 390.4 386.627 388.398L394.687 388.428C394.87 389.384 395.164 390.249 395.57 391.023C396.02 391.798 396.649 392.482 397.458 393.077C398.266 393.671 399.275 394.129 400.486 394.452C401.74 394.775 403.285 394.941 405.122 394.948C407.002 394.954 408.591 394.801 409.888 394.488C411.23 394.129 412.303 393.678 413.107 393.135C413.956 392.547 414.557 391.868 414.913 391.096C415.313 390.28 415.511 389.416 415.507 388.506C415.499 386.278 414.463 384.592 412.399 383.448C410.381 382.303 407.22 381.268 402.918 380.342C400.498 379.788 398.346 379.144 396.463 378.408C394.579 377.629 393.009 376.691 391.751 375.594C390.493 374.453 389.526 373.108 388.848 371.56C388.215 369.966 387.895 368.078 387.887 365.895C387.88 364.121 388.233 362.44 388.943 360.852C389.699 359.263 390.791 357.88 392.219 356.703C393.647 355.526 395.412 354.601 397.515 353.926C399.661 353.253 402.145 352.921 404.966 352.931C407.697 352.942 410.094 353.269 412.156 353.914C414.217 354.558 415.945 355.473 417.337 356.66C418.774 357.803 419.877 359.172 420.644 360.766C421.456 362.36 421.955 364.113 422.141 366.024L414.081 365.993C413.717 364.264 412.794 362.873 411.312 361.822C409.875 360.726 407.769 360.172 404.992 360.161C401.769 360.149 399.443 360.709 398.013 361.841C396.63 362.972 395.941 364.334 395.947 365.924C395.955 368.107 396.856 369.748 398.651 370.846C400.447 371.944 403.204 372.886 406.923 373.673C409.657 374.275 412.055 374.966 414.117 375.746C416.224 376.527 417.974 377.512 419.367 378.699C420.76 379.841 421.795 381.209 422.471 382.803C423.194 384.397 423.559 386.309 423.567 388.537C423.575 390.492 423.201 392.309 422.446 393.989C421.69 395.669 420.532 397.119 418.97 398.342C417.451 399.563 415.53 400.511 413.204 401.184C410.923 401.858 408.238 402.189 405.148 402.177Z" fill="#F5F5F5"/>
<path d="M385.258 521.457C464.778 521.457 529.242 456.558 529.242 376.5C529.242 296.442 464.778 231.542 385.258 231.542C305.737 231.542 241.273 296.442 241.273 376.5C241.273 456.558 305.737 521.457 385.258 521.457Z" stroke="#204C4F" stroke-opacity="0.84" stroke-width="2" stroke-dasharray="4 4"/>
<path d="M385.299 603.264C511.612 603.264 614.009 500.868 614.009 374.555C614.009 248.242 511.612 145.845 385.299 145.845C258.987 145.845 156.59 248.242 156.59 374.555C156.59 500.868 258.987 603.264 385.299 603.264Z" stroke="#204C4F"/>
<path d="M385.3 685.599C557.085 685.599 696.344 546.34 696.344 374.555C696.344 202.769 557.085 63.5098 385.3 63.5098C213.514 63.5098 74.2549 202.769 74.2549 374.555C74.2549 546.34 213.514 685.599 385.3 685.599Z" stroke="#204C4F" stroke-opacity="0.84" stroke-width="2" stroke-dasharray="4 4"/>
</g>
<defs>
<clipPath id="clip0_5101_10157">
<rect width="624.377" height="624.377" fill="white" transform="translate(73.1113 62.3665)"/>
</clipPath>
</defs>
</svg>
