<svg width="46" height="43" viewBox="0 0 46 43" fill="none" xmlns="http://www.w3.org/2000/svg">
<path d="M40.0533 27.8945V15.4812C41.1542 15.1793 41.9479 14.1754 41.9479 13.0206C41.9479 11.6113 40.7884 10.4653 39.3626 10.4653C38.7518 10.4653 38.1606 10.6829 37.6954 11.0725L26.4453 4.74565C26.4595 4.63684 26.4684 4.52627 26.4684 4.41922C26.4684 3.00993 25.3089 1.86389 23.8831 1.86389C22.4573 1.86389 21.2979 3.00993 21.2979 4.41922C21.2979 4.52627 21.305 4.63684 21.321 4.74565L10.0727 11.0708C9.60745 10.6829 9.01618 10.4653 8.40538 10.4653C6.97959 10.4653 5.82013 11.6113 5.82013 13.0206C5.82013 14.1754 6.61204 15.1775 7.7129 15.4812V27.8945C6.61204 28.1964 5.81836 29.2002 5.81836 30.3551C5.81836 31.7643 6.97781 32.9104 8.40361 32.9104C9.14225 32.9104 9.8365 32.5997 10.323 32.0645L21.321 38.2492C21.305 38.3615 21.2979 38.4721 21.2979 38.5809C21.2979 39.9902 22.4573 41.1362 23.8831 41.1362C25.3089 41.1362 26.4684 39.9902 26.4684 38.5809C26.4684 38.4721 26.4613 38.3615 26.4453 38.2492L37.4432 32.0645C37.9298 32.5997 38.624 32.9086 39.3626 32.9086C40.7884 32.9086 41.9479 31.7626 41.9479 30.3533C41.9479 29.1985 41.1542 28.1964 40.0533 27.8927V27.8945ZM39.3609 31.5415C38.6986 31.5415 38.1606 31.0097 38.1606 30.3551C38.1606 29.7004 38.6986 29.1687 39.3609 29.1687C40.0232 29.1687 40.5612 29.7004 40.5612 30.3551C40.5612 31.0097 40.0232 31.5415 39.3609 31.5415ZM36.8236 30.8377L25.8966 36.982C25.4101 36.3836 24.6679 36.0238 23.8831 36.0238C23.0983 36.0238 22.3561 36.3818 21.8696 36.9803L10.9427 30.8359C10.9746 30.6762 10.9906 30.5148 10.9906 30.3533C10.9906 29.2002 10.1987 28.1981 9.09963 27.8945V15.4794C10.2005 15.1758 10.9924 14.1737 10.9924 13.0189C10.9924 12.7381 10.9462 12.466 10.8557 12.2045L21.8661 6.01278C22.3526 6.613 23.0948 6.97454 23.8831 6.97454C24.6715 6.97454 25.4137 6.61476 25.9002 6.01278L36.9123 12.2063C36.8218 12.4678 36.7774 12.7398 36.7774 13.0206C36.7774 14.1737 37.5693 15.1758 38.6684 15.4794V27.8945C37.5693 28.1981 36.7756 29.2002 36.7756 30.3533C36.7756 30.5148 36.7916 30.678 36.8236 30.8377ZM23.8831 39.7673C23.2208 39.7673 22.6828 39.2355 22.6828 38.5809C22.6828 37.9263 23.2208 37.3945 23.8831 37.3945C24.5454 37.3945 25.0834 37.9263 25.0834 38.5809C25.0834 39.2355 24.5454 39.7673 23.8831 39.7673ZM8.40538 31.5415C7.74309 31.5415 7.20509 31.0097 7.20509 30.3551C7.20509 29.7004 7.74309 29.1687 8.40538 29.1687C9.06767 29.1687 9.60567 29.7004 9.60567 30.3551C9.60567 31.0097 9.06767 31.5415 8.40538 31.5415ZM8.40538 14.207C7.74309 14.207 7.20509 13.6752 7.20509 13.0206C7.20509 12.366 7.74309 11.8342 8.40538 11.8342C9.06767 11.8342 9.60567 12.366 9.60567 13.0206C9.60567 13.6752 9.06767 14.207 8.40538 14.207ZM23.8831 3.23282C24.5454 3.23282 25.0834 3.76459 25.0834 4.41922C25.0834 5.07384 24.5454 5.60562 23.8831 5.60562C23.2208 5.60562 22.6828 5.07384 22.6828 4.41922C22.6828 3.76459 23.2208 3.23282 23.8831 3.23282ZM39.3626 11.8342C40.0249 11.8342 40.5629 12.366 40.5629 13.0206C40.5629 13.6752 40.0249 14.207 39.3626 14.207C38.7004 14.207 38.1624 13.6752 38.1624 13.0206C38.1624 12.366 38.7004 11.8342 39.3626 11.8342Z" fill="#FF3B26"/>
<path d="M17.956 11.2655C17.0664 11.2655 16.3438 11.9834 16.3438 12.8644V29.3406C16.3438 30.2234 17.0664 30.9394 17.956 30.9394H29.8133C30.7029 30.9394 31.4255 30.2216 31.4255 29.3406V15.8567L27.2511 11.2638H17.956V11.2655ZM17.8122 12.8661C17.8122 12.7854 17.8761 12.7187 17.956 12.7187H25.9621V15.5162C25.9621 16.3657 26.6599 17.0589 27.5175 17.0589H29.9571V29.3441C29.9571 29.4248 29.8932 29.4915 29.8133 29.4915H17.956C17.8761 29.4915 17.8122 29.4248 17.8122 29.3441V12.8679V12.8661ZM27.5157 15.6373C27.45 15.6373 27.3967 15.5829 27.3967 15.5145V13.5997L29.2487 15.6373H27.5157Z" fill="#FF3B26"/>
<path d="M28.0879 18.8806H19.6787V20.332H28.0879V18.8806Z" fill="#FF3B26"/>
<path d="M28.0879 22.1555H19.6787V23.6069H28.0879V22.1555Z" fill="#FF3B26"/>
<path d="M28.0879 25.4321H19.6787V26.8835H28.0879V25.4321Z" fill="#FF3B26"/>
</svg>
