<svg width="62" height="58" viewBox="0 0 62 58" fill="none" xmlns="http://www.w3.org/2000/svg">
<path d="M40.2091 48.0088H20.049C18.8644 48.0088 17.9023 47.0572 17.9023 45.8854V41.132C17.9023 34.989 22.9543 29.9917 29.1646 29.9917H31.0959C37.3062 29.9917 42.3582 34.989 42.3582 41.132V45.8854C42.3582 47.0572 41.3961 48.0088 40.2115 48.0088H40.2091ZM29.1646 31.7671C23.9451 31.7671 19.6972 35.969 19.6972 41.132V45.8854C19.6972 46.0772 19.8552 46.2334 20.049 46.2334H40.2091C40.403 46.2334 40.5609 46.0772 40.5609 45.8854V41.132C40.5609 35.969 36.313 31.7671 31.0935 31.7671H29.1622H29.1646Z" fill="#FF3B26"/>
<path d="M16.3873 44.3016H10.3732C9.18862 44.3016 8.22656 43.35 8.22656 42.1782V37.4271C8.22656 31.2841 13.2786 26.2869 19.4888 26.2869H23.6506V28.0623H19.4888C14.2693 28.0623 10.0214 32.2642 10.0214 37.4271V42.1782C10.0214 42.37 10.1794 42.5262 10.3732 42.5262H16.3873V44.3016Z" fill="#FF3B26"/>
<path d="M49.9131 44.3016H43.753V42.5262H49.9131C50.1069 42.5262 50.2649 42.37 50.2649 42.1782V37.4271C50.2649 32.2642 46.017 28.0623 40.7975 28.0623H36.3438V26.2869H40.7975C47.0077 26.2869 52.0597 31.2841 52.0597 37.4271V42.1782C52.0597 43.35 51.0977 44.3016 49.9131 44.3016Z" fill="#FF3B26"/>
<path d="M30.1279 28.5783C26.3993 28.5783 23.3672 25.579 23.3672 21.8909C23.3672 18.2027 26.3993 15.2034 30.1279 15.2034C33.8565 15.2034 36.8886 18.2027 36.8886 21.8909C36.8886 25.579 33.8565 28.5783 30.1279 28.5783ZM30.1279 16.9788C27.3901 16.9788 25.1621 19.1827 25.1621 21.8909C25.1621 24.599 27.3901 26.8029 30.1279 26.8029C32.8657 26.8029 35.0937 24.599 35.0937 21.8909C35.0937 19.1827 32.8657 16.9788 30.1279 16.9788Z" fill="#FF3B26"/>
<path d="M20.456 25.1434C16.7275 25.1434 13.6953 22.1441 13.6953 18.456C13.6953 14.7678 16.7275 11.7661 20.456 11.7661C22.9354 11.7661 25.2113 13.106 26.3959 15.2625L24.8188 16.11C23.9477 14.5263 22.2748 13.5416 20.456 13.5416C17.7182 13.5416 15.4902 15.7455 15.4902 18.456C15.4902 21.1665 17.7182 23.368 20.456 23.368C21.0998 23.368 21.722 23.2496 22.3084 23.0129L22.9856 24.6582C22.1839 24.9801 21.3343 25.1434 20.456 25.1434Z" fill="#FF3B26"/>
<path d="M39.8307 25.1434C38.9429 25.1434 38.0813 24.9754 37.2724 24.644L37.9569 23.0035C38.548 23.2449 39.1798 23.368 39.8307 23.368C42.5685 23.368 44.7966 21.1641 44.7966 18.456C44.7966 15.7478 42.5685 13.5416 39.8307 13.5416C38.0047 13.5416 36.3295 14.5311 35.4584 16.1242L33.8789 15.2791C35.0635 13.1131 37.3442 11.7661 39.8283 11.7661C43.5569 11.7661 46.5891 14.7678 46.5891 18.456C46.5891 22.1441 43.5569 25.1434 39.8283 25.1434H39.8307Z" fill="#FF3B26"/>
<path d="M33.1367 17.5683V17.5659H34.9316L33.1367 17.5683Z" fill="#FF3B26"/>
</svg>
