<svg width="44" height="42" viewBox="0 0 44 42" fill="none" xmlns="http://www.w3.org/2000/svg">
<path d="M30.2856 2.96729H13.5837C12.3472 2.96729 11.3401 3.98382 11.3401 5.23176V20.7146H12.6139V5.23176C12.6139 4.69179 13.0487 4.25295 13.5837 4.25295H29.1154V10.1156C29.1154 11.3652 30.1225 12.38 31.3589 12.38H36.2554V35.8254C36.2554 36.3654 35.8189 36.8042 35.2839 36.8042H20.6404V38.0899H35.2839C36.522 38.0899 37.5292 37.0733 37.5292 35.8254V11.2161L30.2856 2.969V2.96729ZM30.3892 10.1173V5.02606L35.7221 11.0978H31.3606C30.8256 11.0978 30.3909 10.659 30.3909 10.119L30.3892 10.1173Z" fill="#FF3B26"/>
<path d="M31.398 16.1702H17.4696V17.4558H31.398V16.1702Z" fill="#FF3B26"/>
<path d="M31.398 23.9768H22.2386V25.2625H31.398V23.9768Z" fill="#FF3B26"/>
<path d="M31.3963 20.0735H17.4696V21.3591H31.3963V20.0735Z" fill="#FF3B26"/>
<path d="M31.3963 27.8782H22.2386V29.1638H31.3963V27.8782Z" fill="#FF3B26"/>
<path d="M17.5545 29.9353H17.4713V31.221H17.5545V29.9353Z" fill="#FF3B26"/>
<path d="M13.4121 33.0672L11.3452 31.1782L12.1995 30.2251L13.3102 31.2399L15.17 29.1108L16.1261 29.9611L13.4121 33.0672Z" fill="#FF3B26"/>
<path d="M13.5803 35.8425C10.958 35.8425 8.8248 33.6895 8.8248 31.0427C8.8248 28.396 10.958 26.2429 13.5803 26.2429C16.2026 26.2429 18.3357 28.396 18.3357 31.0427C18.3357 33.6895 16.2026 35.8425 13.5803 35.8425ZM13.5803 27.5697C11.6832 27.5697 10.1393 29.1279 10.1393 31.0427C10.1393 32.9575 11.6832 34.5157 13.5803 34.5157C15.4774 34.5157 17.0212 32.9575 17.0212 31.0427C17.0212 29.1279 15.4774 27.5697 13.5803 27.5697Z" fill="#FF3B26"/>
<path d="M13.6567 40.4949C13.4903 40.4949 13.3629 40.4503 13.3034 40.4315C12.7769 40.2532 12.2623 40.0201 11.7732 39.7372C10.5487 39.031 9.46339 38.059 8.54966 36.8453C7.61045 35.5991 6.94469 34.2294 6.56935 32.7741C6.37403 32.0164 6.27892 31.2998 6.28062 30.5867C6.28062 29.4691 6.28062 28.3514 6.28062 27.2337V24.719C6.28062 24.6607 6.28402 24.6024 6.28911 24.5407L6.32138 24.0213L6.94808 23.8533C7.09754 23.8139 7.2436 23.7744 7.39136 23.735L9.11013 23.291C10.5028 22.931 11.8938 22.5728 13.2864 22.2111C13.5276 22.1476 13.7671 22.1494 14.0168 22.2145C15.4383 22.5831 16.8581 22.9499 18.2797 23.3167L20.2566 23.8276C20.3245 23.8447 20.3925 23.8653 20.4638 23.8859L20.9767 24.035L21.0124 24.5321C21.0175 24.5921 21.0226 24.647 21.0226 24.7018V26.3012C21.0243 27.7086 21.026 29.1639 21.0192 30.5953C21.0141 31.6718 20.7967 32.7809 20.3704 33.8917C19.6299 35.8271 18.4767 37.459 16.9431 38.743C16.0752 39.4698 15.1275 40.0201 14.1238 40.38C14.1 40.3886 14.0762 40.3955 14.0541 40.404L14.0371 40.4092C13.8996 40.4726 13.7671 40.4932 13.6533 40.4932L13.6567 40.4949ZM14.0575 40.4023C14.0575 40.4023 14.0541 40.4023 14.0541 40.404C14.0541 40.404 14.0575 40.404 14.0575 40.4023ZM7.55441 25.0241V27.2354C7.55441 28.3531 7.55441 29.4708 7.55441 30.5884C7.55441 31.1918 7.63593 31.8021 7.80237 32.4518C8.13356 33.7426 8.72629 34.9597 9.56359 36.0688C10.3737 37.1436 11.3299 38.0024 12.405 38.623C12.8007 38.851 13.2168 39.043 13.6414 39.1921C13.655 39.1869 13.6669 39.1835 13.6788 39.1801L13.7009 39.1732C14.5619 38.8647 15.3806 38.3881 16.1329 37.759C17.4967 36.6173 18.5226 35.1637 19.1849 33.434C19.5586 32.4552 19.7437 31.5278 19.7471 30.5936C19.7539 29.1656 19.7522 27.712 19.7505 26.3063V25.0258L17.9655 24.5647C16.5439 24.1978 15.1241 23.831 13.7026 23.4624C13.6516 23.4487 13.6278 23.4522 13.604 23.459C12.2114 23.8207 10.8187 24.1807 9.42602 24.539L7.70726 24.983C7.65631 24.9967 7.60536 25.0104 7.55271 25.0224L7.55441 25.0241Z" fill="#FF3B26"/>
</svg>
