<svg width="95" height="91" viewBox="0 0 95 91" fill="none" xmlns="http://www.w3.org/2000/svg">
<path d="M91.0899 0.766846H36.8313C35.0236 0.766846 33.5526 2.23784 33.5526 4.04115V22.7609H23.2954C21.4877 22.7609 20.0167 24.2319 20.0167 26.0352V44.755H10.4597C8.65192 44.755 7.18091 46.226 7.18091 48.0293V55.1805H8.73166V48.0293C8.73166 47.0767 9.50705 46.3058 10.4597 46.3058H23.4594L24.793 48.6231C26.2374 51.1353 28.9402 52.6993 31.8423 52.6993H58.8786C59.4103 52.6993 59.84 53.1291 59.84 53.6608V88.7432H10.4597C9.50705 88.7432 8.73166 87.9679 8.73166 87.0153V80.3071H7.18091V87.0153C7.18091 88.823 8.65192 90.294 10.4597 90.294H64.7182C66.5215 90.294 67.9925 88.823 67.9925 87.0153V68.2999H77.554C79.3573 68.2999 80.8283 66.8289 80.8283 65.0212V46.3058H91.0899C92.8932 46.3058 94.3642 44.8348 94.3642 43.0271V4.04115C94.3642 2.23784 92.8976 0.766846 91.0899 0.766846ZM66.4418 87.0153C66.4418 87.9679 65.6664 88.7432 64.7182 88.7432H61.3908V53.6608C61.3908 52.274 60.2654 51.1486 58.8786 51.1486H31.8423C29.494 51.1486 27.3097 49.8858 26.14 47.8477L25.2494 46.3014H64.7182C65.6708 46.3014 66.4418 47.0767 66.4418 48.0249V87.0108V87.0153ZM72.6758 66.7491H67.9925V48.0293C67.9925 46.2216 66.5215 44.755 64.7182 44.755H21.5674V26.0352C21.5674 25.0871 22.3428 24.3117 23.2954 24.3117H36.2952L37.6288 26.629C39.0777 29.1412 41.776 30.7052 44.6781 30.7052H71.7144C72.2416 30.7052 72.6758 31.135 72.6758 31.6667V66.7491ZM79.2776 65.0212C79.2776 65.9738 78.5022 66.7491 77.554 66.7491H74.2266V31.6667C74.2266 30.2843 73.1012 29.1545 71.7144 29.1545H44.6781C42.3298 29.1545 40.1455 27.8917 38.9713 25.8536L38.0808 24.3073H77.5496C78.4978 24.3073 79.2731 25.0826 79.2731 26.0308V65.0167L79.2776 65.0212ZM86.2117 44.755H80.8283V26.0352C80.8283 24.2319 79.3618 22.7609 77.554 22.7609H35.1033V4.04115C35.1033 3.09297 35.8787 2.3176 36.8313 2.3176H49.831L51.1647 4.63486C52.6135 7.14708 55.3119 8.71113 58.214 8.71113H85.2502C85.7774 8.71113 86.2117 9.14091 86.2117 9.67259V44.755ZM92.8135 43.0271C92.8135 43.9797 92.0381 44.755 91.0899 44.755H87.7624V9.67259C87.7624 8.29021 86.637 7.16038 85.2502 7.16038H58.214C55.8657 7.16038 53.6813 5.89762 52.5072 3.85949L51.6166 2.31317H91.0855C92.0336 2.31317 92.809 3.08854 92.809 4.03672V43.0226L92.8135 43.0271Z" fill="#060425"/>
<path d="M9.06838 67.077V60.8386H6.84858V67.077H0.605713V69.2968H6.84858V75.5397H9.06838V69.2968H15.3068V67.077H9.06838Z" fill="#060425"/>
</svg>
