<svg width="48" height="48" viewBox="0 0 48 48" fill="none" xmlns="http://www.w3.org/2000/svg">
<rect x="0.5" y="0.5" width="47" height="47" rx="23.5" stroke="#FF3B26"/>
<path d="M33.9323 23.3313C32.1396 19.1437 28.7931 15.8144 24.5963 14.0435C24.4273 13.9804 24.2402 13.9862 24.0754 14.0595C23.9106 14.1329 23.7812 14.2681 23.715 14.4359C23.679 14.5199 23.66 14.6102 23.6592 14.7016C23.6584 14.793 23.6758 14.8837 23.7104 14.9683C23.745 15.0528 23.7961 15.1297 23.8608 15.1943C23.9254 15.259 24.0022 15.3101 24.0868 15.3447C27.9554 16.9791 31.0401 20.049 32.693 23.9096C32.7669 24.0733 32.9019 24.2017 33.0691 24.2673C33.2363 24.3329 33.4225 24.3305 33.5881 24.2608C33.6728 24.2237 33.7492 24.1699 33.8127 24.1026C33.8762 24.0353 33.9255 23.9559 33.9576 23.8691C33.9898 23.7824 34.0041 23.69 33.9997 23.5976C33.9954 23.5052 33.9724 23.4146 33.9323 23.3313Z" fill="#FF3B26"/>
<path d="M23.7276 19.0628C26.0725 20.0505 27.9432 21.9088 28.9464 24.2471C28.9997 24.3625 29.0838 24.4608 29.1895 24.5313C29.2952 24.6018 29.4184 24.6416 29.5454 24.6465C29.6383 24.6458 29.73 24.6246 29.8139 24.5845C29.9722 24.5069 30.0947 24.3716 30.1562 24.2063C30.2177 24.0411 30.2135 23.8585 30.1444 23.6963C29.0072 21.0415 26.8847 18.9313 24.2233 17.8097C24.0594 17.7515 23.8796 17.7575 23.7199 17.8265C23.5603 17.8954 23.4327 18.0223 23.3627 18.1815C23.298 18.3471 23.2998 18.5313 23.3678 18.6955C23.4358 18.8598 23.5647 18.9914 23.7276 19.0628Z" fill="#FF3B26"/>
<path d="M30.3571 27.242C30.2078 27.0675 30.0225 26.9275 29.8139 26.8314C29.6054 26.7354 29.3785 26.6857 29.1488 26.6857C28.9192 26.6857 28.6923 26.7354 28.4837 26.8314C28.2751 26.9275 28.0898 27.0675 27.9405 27.242C27.376 27.7996 26.8114 28.3642 26.2537 28.9357C26.2289 28.9724 26.1969 29.0038 26.1597 29.028C26.1225 29.0522 26.0808 29.0686 26.0372 29.0763C25.9935 29.084 25.9487 29.0829 25.9054 29.0729C25.8622 29.0629 25.8214 29.0443 25.7855 29.0183C25.4206 28.8186 25.0282 28.6603 24.6771 28.4399C23.0658 27.3956 21.6375 26.093 20.4497 24.5844C19.8295 23.8532 19.3171 23.0371 18.9281 22.1609C18.8858 22.0882 18.8716 22.0026 18.888 21.9201C18.9045 21.8377 18.9506 21.7641 19.0176 21.7133C19.5822 21.1625 20.133 20.6049 20.6907 20.0403C20.8727 19.8891 21.0191 19.6997 21.1197 19.4855C21.2202 19.2713 21.2723 19.0376 21.2723 18.801C21.2723 18.5644 21.2202 18.3307 21.1197 18.1165C21.0191 17.9023 20.8727 17.7129 20.6907 17.5617C20.25 17.1142 19.8094 16.6804 19.3619 16.2329L17.9849 14.8559C17.83 14.69 17.6438 14.5565 17.437 14.4632C17.2302 14.3698 17.0069 14.3184 16.78 14.312C16.5517 14.3195 16.3272 14.3721 16.1192 14.4666C15.9113 14.5611 15.724 14.6958 15.5683 14.8628C14.9968 15.4205 14.4529 15.9988 13.8677 16.5496C13.3524 17.0356 13.0442 17.7013 13.0071 18.4086C12.958 19.5685 13.1649 20.725 13.6129 21.796C14.4717 24.0224 15.7085 26.0837 17.2688 27.8891C19.3209 30.3553 21.8775 32.3532 24.7666 33.7482C26.0482 34.4254 27.4532 34.8375 28.8975 34.96H29.166C29.607 34.9787 30.0466 34.8987 30.4527 34.726C30.8589 34.5533 31.2213 34.2922 31.5138 33.9617C31.9958 33.4178 32.5397 32.922 33.0561 32.4057C33.2346 32.2538 33.378 32.0649 33.4764 31.8521C33.5747 31.6393 33.6257 31.4077 33.6257 31.1733C33.6257 30.9388 33.5747 30.7072 33.4764 30.4944C33.378 30.2816 33.2346 30.0928 33.0561 29.9409C32.1656 29.0412 31.266 28.1416 30.3571 27.242ZM32.0921 31.4487L31.5758 31.9582C31.2178 32.3024 30.8529 32.6466 30.4949 33.0529C30.3336 33.2403 30.1306 33.3871 29.9022 33.4816C29.6738 33.5761 29.4263 33.6156 29.1798 33.5968H28.987C27.7205 33.4874 26.489 33.1245 25.3656 32.5296C22.6552 31.2115 20.2548 29.3343 18.3222 27.0216C16.8532 25.3403 15.6883 23.4159 14.8798 21.3347C14.5022 20.4526 14.3236 19.4983 14.3565 18.5394C14.3723 18.171 14.5302 17.823 14.7971 17.5686C15.1552 17.2244 15.4856 16.8801 15.8505 16.529L16.539 15.8405C16.5616 15.7939 16.5968 15.7546 16.6406 15.7272C16.6845 15.6997 16.7352 15.6851 16.7869 15.6851C16.8386 15.6851 16.8893 15.6997 16.9332 15.7272C16.977 15.7546 17.0122 15.7939 17.0348 15.8405C17.3377 16.1365 17.6338 16.4395 17.9298 16.7424L18.3842 17.1968L19.0727 17.8853L19.7268 18.5394C19.9815 18.7941 19.9677 18.8423 19.7268 19.0764L19.4927 19.3105C19.0245 19.7924 18.5495 20.2606 18.0537 20.7426C17.7949 20.9885 17.6192 21.3091 17.5513 21.6596C17.4835 22.0101 17.5267 22.3731 17.6751 22.6979C18.1096 23.6959 18.6897 24.624 19.3963 25.4519C20.683 27.0705 22.2276 28.4662 23.9679 29.5828C24.2364 29.7481 24.5118 29.8858 24.7528 30.0028L25.1246 30.1887C25.3875 30.344 25.6868 30.4271 25.9921 30.4297C26.2298 30.4285 26.4647 30.3777 26.6817 30.2804C26.8986 30.1832 27.0929 30.0418 27.252 29.8651C27.7959 29.3074 28.3468 28.7635 28.9251 28.1921C28.984 28.1154 29.0661 28.0598 29.1592 28.0337C29.2554 28.057 29.3406 28.1129 29.4002 28.1921C30.3181 29.1101 31.2361 30.012 32.1541 30.8979C32.3125 31.1388 32.3331 31.2008 32.0921 31.4487Z" fill="#FF3B26"/>
</svg>
