<svg width="48" height="48" viewBox="0 0 48 48" fill="none" xmlns="http://www.w3.org/2000/svg">
<rect x="0.5" y="0.5" width="47" height="47" rx="23.5" stroke="#FF3B26"/>
<path d="M33.205 15H14.7957C13.982 15 13.2016 15.3298 12.6262 15.9169C12.0508 16.504 11.7275 17.3002 11.7275 18.1305V29.8697C11.7275 30.6999 12.0508 31.4962 12.6262 32.0832C13.2016 32.6703 13.982 33.0001 14.7957 33.0001H33.205C34.0187 33.0001 34.7991 32.6703 35.3745 32.0832C35.9499 31.4962 36.2732 30.6999 36.2732 29.8697V18.1305C36.2732 17.3002 35.9499 16.504 35.3745 15.9169C34.7991 15.3298 34.0187 15 33.205 15ZM34.7391 29.8697C34.7391 30.2848 34.5774 30.6829 34.2897 30.9765C34.002 31.27 33.6118 31.4349 33.205 31.4349H14.7957C14.3889 31.4349 13.9987 31.27 13.711 30.9765C13.4233 30.6829 13.2616 30.2848 13.2616 29.8697V18.1305C13.2616 17.7153 13.4233 17.3172 13.711 17.0237C13.9987 16.7301 14.3889 16.5652 14.7957 16.5652H33.205C33.6118 16.5652 34.002 16.7301 34.2897 17.0237C34.5774 17.3172 34.7391 17.7153 34.7391 18.1305V29.8697Z" fill="#FF3B26"/>
<path d="M33.0293 19.2029C32.9655 19.1231 32.8868 19.0569 32.7979 19.0082C32.7089 18.9595 32.6113 18.9291 32.5109 18.9189C32.4104 18.9088 32.3089 18.9189 32.2123 18.9489C32.1157 18.9788 32.0258 19.0279 31.9478 19.0933L24.0011 25.7299L16.0468 19.0933C15.9703 19.0203 15.88 18.9641 15.7813 18.9281C15.6827 18.8921 15.5779 18.8771 15.4734 18.884C15.3688 18.8909 15.2668 18.9195 15.1735 18.9682C15.0803 19.0169 14.9978 19.0846 14.9311 19.167C14.8645 19.2495 14.8151 19.345 14.786 19.4477C14.7569 19.5503 14.7488 19.658 14.762 19.764C14.7753 19.87 14.8097 19.9722 14.8631 20.0641C14.9165 20.156 14.9879 20.2358 15.0727 20.2985L23.5102 27.3421C23.6482 27.4587 23.8219 27.5224 24.0011 27.5221C24.1777 27.5206 24.3484 27.457 24.4844 27.3421L32.922 20.2985C33.0777 20.1672 33.1763 19.9784 33.1965 19.7732C33.2166 19.5681 33.1565 19.3631 33.0293 19.2029Z" fill="#FF3B26"/>
<path d="M29.9061 25.4004C29.7624 25.2547 29.568 25.1729 29.3653 25.1729C29.1627 25.1729 28.9683 25.2547 28.8246 25.4004C28.7527 25.4732 28.6956 25.5597 28.6566 25.6551C28.6177 25.7505 28.5977 25.8528 28.5977 25.9561C28.5977 26.0594 28.6177 26.1617 28.6566 26.2571C28.6956 26.3524 28.7527 26.439 28.8246 26.5117L31.8928 29.6422C31.9643 29.7146 32.0491 29.772 32.1423 29.811C32.2356 29.8501 32.3354 29.87 32.4362 29.8696C32.537 29.8692 32.6368 29.8486 32.7297 29.8089C32.8227 29.7692 32.9071 29.7113 32.9781 29.6383C33.0491 29.5653 33.1054 29.4788 33.1436 29.3836C33.1819 29.2885 33.2014 29.1866 33.201 29.0838C33.2006 28.9809 33.1804 28.8792 33.1415 28.7843C33.1026 28.6895 33.0458 28.6033 32.9743 28.5309L29.9061 25.4004Z" fill="#FF3B26"/>
<path d="M18.1162 25.4004L15.048 28.5309C14.9036 28.6772 14.822 28.8761 14.8213 29.0838C14.8206 29.2915 14.9007 29.4909 15.0442 29.6383C15.1876 29.7857 15.3825 29.8689 15.5861 29.8696C15.7896 29.8703 15.9851 29.7885 16.1296 29.6422L19.1978 26.5117C19.2696 26.439 19.3267 26.3524 19.3657 26.2571C19.4046 26.1617 19.4246 26.0594 19.4246 25.9561C19.4246 25.8528 19.4046 25.7505 19.3657 25.6551C19.3267 25.5597 19.2696 25.4732 19.1978 25.4004C19.054 25.2547 18.8596 25.1729 18.657 25.1729C18.4543 25.1729 18.2599 25.2547 18.1162 25.4004Z" fill="#FF3B26"/>
</svg>
