<svg width="48" height="48" viewBox="0 0 48 48" fill="none" xmlns="http://www.w3.org/2000/svg">
<rect x="0.5" y="0.5" width="47" height="47" rx="23.5" stroke="#FF3B26"/>
<path d="M28.8052 31.8507C28.595 31.8506 28.3884 31.8066 28.1913 31.7196L28.1572 31.7049L25.3142 29.5081C25.1131 29.3527 24.8626 29.2671 24.609 29.2671C24.3197 29.2671 24.0426 29.3751 23.8288 29.5711L22.2904 30.982L22.2777 30.992C22.2774 30.992 22.0898 31.1274 21.8468 31.1274C21.7828 31.1274 21.719 31.1179 21.6573 31.0991L21.6305 31.0908C21.6305 31.0908 21.6016 31.0864 21.6012 31.0863L21.5977 31.0842L21.5634 31.0713C21.5355 31.0608 21.5146 31.0512 21.4994 31.042C21.4449 31.0072 21.3921 30.9577 21.3458 30.8955C21.2134 30.7285 21.11 30.5051 21.0031 30.1611C20.8683 29.7328 20.4672 28.412 20.145 27.3508C19.959 26.7383 19.8024 26.2226 19.7459 26.0394L19.6867 25.8475L16.0391 24.6102C15.9792 24.5852 15.8428 24.523 15.7038 24.4232C15.4245 24.2236 15.2721 23.9904 15.2375 23.7095C15.2119 23.5089 15.2878 23.3123 15.3675 23.1946C15.4698 23.0434 15.5884 22.9556 15.6687 22.9028C15.8521 22.7759 16.0253 22.7071 16.0741 22.6888L16.0905 22.6823C16.3316 22.58 19.8584 21.0825 23.4439 19.5617L28.6218 17.3653L29.418 17.0289C30.3363 16.6408 30.9638 16.3757 31.1709 16.291L31.2086 16.2767C31.3404 16.2252 31.5386 16.1556 31.7385 16.1461C31.7539 16.1454 31.7694 16.145 31.7851 16.145C31.956 16.145 32.1131 16.1895 32.2655 16.2809C32.4326 16.3805 32.5812 16.5832 32.6361 16.7859C32.6936 16.9983 32.6887 17.2403 32.6207 17.5471L30.0063 31.0348L29.9944 31.0653C29.9926 31.0701 29.8716 31.3729 29.5845 31.606C29.3954 31.7592 29.104 31.8507 28.8052 31.8507ZM21.5726 31.077L21.5797 31.0796C21.5774 31.0787 21.575 31.0778 21.5726 31.077Z" fill="#F8FCFD"/>
<path d="M31.72 15.753C31.4844 15.764 31.2625 15.833 31.0652 15.9103H31.0625C30.8625 15.9903 29.9119 16.3932 28.4681 17.003C27.0244 17.6155 25.1505 18.4102 23.2903 19.1994C19.5754 20.775 15.9236 22.3257 15.9236 22.3257L15.9674 22.3091C15.9674 22.3091 15.7154 22.3919 15.4524 22.574C15.3182 22.6623 15.1702 22.7837 15.0414 22.9741C14.9126 23.1645 14.8086 23.457 14.8469 23.7578C14.9099 24.2683 15.2387 24.5745 15.4743 24.7428C15.7126 24.9139 15.94 24.9939 15.94 24.9939H15.9455L19.37 26.1556C19.5235 26.6523 20.4138 29.5992 20.6275 30.2779C20.7535 30.6836 20.8768 30.9374 21.0302 31.1305C21.1042 31.2299 21.1918 31.3127 21.2959 31.3789C21.337 31.4037 21.3808 31.423 21.4247 31.4395C21.4384 31.4478 21.4521 31.4505 21.4685 31.4534L21.4329 31.4451C21.4439 31.4479 21.452 31.4561 21.4603 31.4589C21.4877 31.4671 21.5069 31.4699 21.5425 31.4755C22.0849 31.641 22.5205 31.3017 22.5205 31.3017L22.5452 31.2823L24.0948 29.8611C24.3681 29.6105 24.7804 29.593 25.0736 29.8196L27.9558 32.0467L28.0325 32.0797C28.7394 32.3915 29.4544 32.2177 29.8324 31.9114C30.2132 31.6024 30.3611 31.2078 30.3611 31.2078L30.3858 31.1444L33.0048 17.6323C33.0788 17.2984 33.0979 16.9866 33.0158 16.683C32.9336 16.3795 32.7226 16.0953 32.4679 15.9436C32.2103 15.7888 31.9556 15.742 31.72 15.753ZM31.6488 17.2016C31.646 17.2458 31.6543 17.2402 31.6351 17.3258V17.3341L29.0408 30.7055C29.0298 30.7248 29.0106 30.7662 28.9585 30.8076C28.9037 30.8518 28.8599 30.8794 28.6326 30.7882L25.5393 28.3996C24.9306 27.9295 24.0751 27.9662 23.5081 28.4866L21.9836 29.886L22.5096 26.5031L26.8076 22.3804C27.2314 21.9738 26.7231 21.2945 26.2187 21.5939C23.6544 23.1159 20.507 25.0628 20.507 25.0628L20.5042 25.049L16.4113 23.6611V23.6583C16.4085 23.6583 16.403 23.6556 16.4003 23.6556C16.403 23.6556 16.4222 23.6473 16.4222 23.6473L16.4441 23.6363L16.466 23.6281C16.466 23.6281 20.1206 22.0774 23.8355 20.5018C25.6957 19.7126 27.5695 18.918 29.0105 18.3054C30.4515 17.6956 31.5172 17.2485 31.5775 17.2237C31.635 17.2016 31.6076 17.2016 31.6488 17.2016Z" fill="#FF3B26"/>
</svg>
