<svg width="48" height="45" viewBox="0 0 48 45" fill="none" xmlns="http://www.w3.org/2000/svg">
<path d="M40.8577 3.70557H18.063C16.9068 3.70557 15.9341 4.49349 15.6599 5.55692H6.76842C5.60302 5.55692 4.65625 6.49545 4.65625 7.64887V28.8788L11.0539 35.8949H15.5802V37.5166C15.5802 38.9033 16.7197 40.0329 18.1186 40.0329H40.8577C42.2269 40.0329 43.3423 38.9272 43.3423 37.5699V6.16853C43.3423 4.81124 42.2288 3.70557 40.8577 3.70557ZM10.965 33.6927L6.74248 29.0607H10.2794C10.6574 29.0607 10.9668 29.3655 10.9668 29.7421V33.6927H10.965ZM12.3898 34.4825V29.7402C12.3898 28.5868 11.443 27.6464 10.2776 27.6464H6.08104V7.64887C6.08104 7.2742 6.39045 6.96931 6.76842 6.96931H15.5784V11.4306H10.1497V12.8429H15.5784V16.4336H10.1497V17.846H15.5784V21.4385H10.1497V22.8509H15.5784V34.4825H12.3898ZM40.8577 38.6205H18.1186C17.5053 38.6205 17.005 38.1246 17.005 37.5166V37.1401C17.005 36.5432 17.4664 36.0565 18.0315 36.0565H40.8911C41.2579 36.0565 41.6044 35.972 41.9175 35.8232V37.5681C41.9175 38.1466 41.4414 38.6186 40.8577 38.6186V38.6205ZM40.8892 34.6459H18.0296C17.6628 34.6459 17.3163 34.7304 17.0032 34.8792V6.16853C17.0032 5.58998 17.4793 5.11796 18.063 5.11796H40.8577C41.4414 5.11796 41.9175 5.58814 41.9175 6.16853V33.5623C41.9175 34.1592 41.4562 34.6459 40.8911 34.6459H40.8892Z" fill="#FF3B26"/>
<path d="M39.7377 36.7471H19.5312V37.8766H39.7377V36.7471Z" fill="#FF3B26"/>
<path d="M36.5762 15.1442C36.5188 15.1442 36.4614 15.1497 36.4039 15.1552H35.4887V12.7657H23.6698V15.1552H22.723C22.6656 15.1516 22.6081 15.1442 22.5507 15.1442C21.2185 15.1442 20.1328 16.2187 20.1328 17.5411C20.1328 18.8635 21.2167 19.9379 22.5507 19.9379C23.6309 19.9379 24.4739 19.4053 24.8092 18.5788H25.2947V28.4233H23.138V29.8357H36.0445V28.4233H33.8341V18.5788H34.3196C34.6549 19.4053 35.4979 19.9379 36.5762 19.9379C37.9084 19.9379 38.9941 18.8635 38.9941 17.5411C38.9941 16.2187 37.9102 15.1442 36.5762 15.1442ZM25.0019 14.0863H34.1565V14.9661H25.0019V14.0863ZM26.7194 18.5788H28.852V28.4233H26.7194V18.5788ZM32.4093 28.4233H30.2768V18.5788H32.4093V28.4233ZM36.5762 18.599C36.0778 18.599 35.5368 18.3878 35.5109 17.7964L35.4868 17.2564H34.138L23.6883 17.2582L23.6401 17.2601L23.616 17.8C23.5901 18.3896 23.0491 18.599 22.5507 18.599C21.9615 18.599 21.4835 18.1251 21.4835 17.5411C21.4835 16.957 21.9615 16.4831 22.5507 16.4831H25.7227L25.7023 16.4721H33.4228L33.4024 16.4831H36.5744C37.1636 16.4831 37.6416 16.957 37.6416 17.5411C37.6416 18.1251 37.1636 18.599 36.5744 18.599H36.5762Z" fill="#FF3B26"/>
</svg>
