<svg width="46" height="44" viewBox="0 0 46 44" fill="none" xmlns="http://www.w3.org/2000/svg">
<path d="M31.0867 7.03711C28.7429 7.03711 26.8359 8.96585 26.8359 11.3346C26.8359 13.7033 28.7429 15.6338 31.0867 15.6338C33.4304 15.6338 35.3374 13.7051 35.3374 11.3346C35.3374 8.96405 33.4304 7.03711 31.0867 7.03711ZM31.0867 14.2869C29.478 14.2869 28.1676 12.9634 28.1676 11.3346C28.1676 9.70573 29.4762 8.38399 31.0867 8.38399C32.6971 8.38399 34.0057 9.70753 34.0057 11.3346C34.0057 12.9616 32.6971 14.2869 31.0867 14.2869Z" fill="#FF3B26"/>
<path d="M38.0314 16.336L37.3726 17.0022L36.2362 15.8242C37.2643 14.6174 37.8893 13.0496 37.8893 11.3346C37.8893 7.53994 34.8371 4.45288 31.0853 4.45288C27.3335 4.45288 24.2812 7.53994 24.2812 11.3346C24.2812 15.1292 27.3335 18.2162 31.0853 18.2162C32.6638 18.2162 34.1162 17.6685 35.2721 16.7526L36.4298 17.954L35.7018 18.6903L41.1759 24.2269L43.5037 21.8726L38.0296 16.336H38.0314ZM25.6129 11.3346C25.6129 8.28162 28.0686 5.79976 31.0853 5.79976C34.102 5.79976 36.5576 8.28342 36.5576 11.3346C36.5576 14.3857 34.102 16.8694 31.0853 16.8694C28.0686 16.8694 25.6129 14.3857 25.6129 11.3346ZM37.5857 18.6903L38.0296 18.2414L41.6198 21.8726L41.1759 22.3215L37.5857 18.6903Z" fill="#FF3B26"/>
<path d="M10.2873 38.1393L7.30078 35.4043L8.1939 34.4058L10.1808 36.225L13.1442 32.8254L14.1421 33.7162L10.2873 38.1393Z" fill="#FF3B26"/>
<path d="M10.6368 41.4849C7.09271 41.4849 4.21094 38.5702 4.21094 34.9857C4.21094 31.4012 7.09271 28.4866 10.6368 28.4866C14.1808 28.4866 17.0626 31.4012 17.0626 34.9857C17.0626 38.5702 14.1808 41.4849 10.6368 41.4849ZM10.6368 29.8335C7.8278 29.8335 5.54262 32.1447 5.54262 34.9857C5.54262 37.8268 7.8278 40.138 10.6368 40.138C13.4457 40.138 15.7309 37.8268 15.7309 34.9857C15.7309 32.1447 13.4457 29.8335 10.6368 29.8335Z" fill="#FF3B26"/>
<path d="M32.0232 40.3158H17.7422V38.969H32.0232C32.5825 38.969 33.037 38.5092 33.037 37.9435V19.7031H34.3687V37.9435C34.3687 39.2509 33.3158 40.3158 32.0232 40.3158Z" fill="#FF3B26"/>
<path d="M8.32387 27.5043H6.99219V5.89306C6.99219 4.58569 8.04511 3.52075 9.33951 3.52075H25.8453V4.86764H9.33951C8.7802 4.86764 8.32387 5.32737 8.32387 5.89306V27.5043Z" fill="#FF3B26"/>
<path d="M27.96 23.7671H13.3984V25.114H27.96V23.7671Z" fill="#FF3B26"/>
<path d="M27.961 27.6104H16.75V28.9572H27.961V27.6104Z" fill="#FF3B26"/>
<path d="M24.2135 16.0828H13.3984V17.4296H24.2135V16.0828Z" fill="#FF3B26"/>
<path d="M27.9621 19.9258H13.4023V21.2727H27.9621V19.9258Z" fill="#FF3B26"/>
</svg>
