<svg width="40" height="39" viewBox="0 0 40 39" fill="none" xmlns="http://www.w3.org/2000/svg">
<path d="M38.2983 0H15.4991C14.5589 0 13.7956 0.763324 13.7956 1.70165V9.24181H9.81141C8.87122 9.24181 8.10789 10.0051 8.10789 10.9435V18.4836H4.41787C3.47768 18.4836 2.71436 19.2469 2.71436 20.1853V23.516H4.01759V20.1853C4.01759 19.9656 4.19632 19.7869 4.41787 19.7869H9.69226L10.1596 20.5967C10.8242 21.7529 12.0679 22.4734 13.4028 22.4734H24.7633C24.8061 22.4734 24.8414 22.5088 24.8414 22.5516V36.9672H4.41787C4.19632 36.9672 4.01759 36.7885 4.01759 36.567V33.4224H2.71436V36.567C2.71436 37.5071 3.47768 38.2705 4.41787 38.2705H27.2171C28.1554 38.2705 28.9187 37.5071 28.9187 36.567V29.0287H32.6106C33.5489 29.0287 34.3123 28.2653 34.3123 27.3251V19.7869H38.2983C39.2366 19.7869 40 19.0235 40 18.0833V1.70165C40 0.763324 39.2366 0 38.2983 0ZM27.2171 18.4836H9.41113V10.9435C9.41113 10.7238 9.58986 10.545 9.81141 10.545H15.0858L15.5531 11.3568C16.2196 12.5148 17.4633 13.2334 18.7982 13.2334H30.1587C30.2015 13.2334 30.2368 13.2688 30.2368 13.3116V27.7273H28.9206V20.1871C28.9206 19.2488 28.1573 18.4855 27.2189 18.4855L27.2171 18.4836ZM30.1587 11.9302H18.7982C17.9268 11.9302 17.117 11.461 16.6832 10.707L16.5901 10.5469H32.6125C32.8321 10.5469 33.0109 10.7256 33.0109 10.9453V27.327C33.0109 27.5486 32.8321 27.7273 32.6125 27.7273H31.5401V13.3116C31.5401 12.5502 30.9201 11.9302 30.1587 11.9302ZM32.6106 9.24181H15.0988V1.70165C15.0988 1.48197 15.2776 1.30324 15.4991 1.30324H38.2983C38.518 1.30324 38.6967 1.48197 38.6967 1.70165V18.0833C38.6967 18.3049 38.518 18.4836 38.2983 18.4836H34.3123V10.9435C34.3123 10.0051 33.5489 9.24181 32.6106 9.24181ZM24.7633 21.1701H13.4028C12.5314 21.1701 11.7216 20.701 11.2878 19.947L11.1947 19.7869H27.2152C27.4349 19.7869 27.6136 19.9656 27.6136 20.1853V36.567C27.6136 36.7885 27.4349 36.9672 27.2152 36.9672H26.1428V22.5516C26.1428 21.7901 25.5229 21.1701 24.7614 21.1701H24.7633Z" fill="#FF3B26"/>
<path d="M4.11264 31.9202V29.297H6.73587V27.8057H4.11264V25.1843H2.62137V27.8057H0V29.297H2.62137V31.9202H4.11264Z" fill="#FF3B26"/>
</svg>
