<svg width="57" height="54" viewBox="0 0 57 54" fill="none" xmlns="http://www.w3.org/2000/svg">
<path d="M46.3217 11.9885H35.6046V10.3443C35.6046 9.20048 34.674 8.26819 33.5321 8.26819H22.87C21.7281 8.26819 20.7974 9.20048 20.7974 10.3443V11.9885H10.0804C8.93849 11.9885 8.00781 12.9208 8.00781 14.0647V41.8218C8.00781 42.9656 8.93849 43.8979 10.0804 43.8979H46.3217C47.4636 43.8979 48.3943 42.9656 48.3943 41.8218V14.0647C48.3943 12.9208 47.4636 11.9885 46.3217 11.9885ZM22.4454 10.3421C22.4454 10.1085 22.6346 9.91898 22.8678 9.91898H33.5299C33.7631 9.91898 33.9523 10.1085 33.9523 10.3421V11.9863H22.4454V10.3421ZM10.0804 13.6415H46.3217C46.5549 13.6415 46.7441 13.8311 46.7441 14.0647V20.7296L33.1646 27.6303V24.9965H23.2374V27.6303L9.65795 20.7318V14.0669C9.65795 13.8333 9.84716 13.6437 10.0804 13.6437V13.6415ZM31.5123 26.6495V29.9687C31.5123 31.798 30.0272 33.2879 28.1988 33.2879C26.3705 33.2879 24.8854 31.8002 24.8854 29.9687V26.6495H31.5123ZM46.3217 42.2427H10.0804C9.84716 42.2427 9.65795 42.0532 9.65795 41.8196V22.5831L23.2374 29.4816V29.9665C23.2374 32.7083 25.464 34.9387 28.201 34.9387C30.9381 34.9387 33.1646 32.7083 33.1646 29.9665V29.4816L46.7441 22.5809V41.8174C46.7441 42.051 46.5549 42.2405 46.3217 42.2405V42.2427Z" fill="#FF3B26"/>
</svg>
