<svg width="46" height="44" viewBox="0 0 46 44" fill="none" xmlns="http://www.w3.org/2000/svg">
<path d="M26.935 10.0469C28.1975 10.0469 29.2255 9.00706 29.2255 7.73021C29.2255 6.45337 28.1975 5.41357 26.935 5.41357C25.6726 5.41357 24.6445 6.45337 24.6445 7.73021C24.6445 9.00706 25.6726 10.0469 26.935 10.0469ZM26.935 6.76046C27.4642 6.76046 27.8938 7.19505 27.8938 7.73021C27.8938 8.26538 27.4642 8.69997 26.935 8.69997C26.4059 8.69997 25.9762 8.26538 25.9762 7.73021C25.9762 7.19505 26.4059 6.76046 26.935 6.76046Z" fill="#FF3B26"/>
<path d="M16.5987 12.791L13.9336 19.9133H15.141L15.734 18.3061H18.5909L19.184 19.9133H20.4713L17.8061 12.791H16.5987ZM16.1264 17.2465L17.1723 14.3157L18.1985 17.2465H16.1264Z" fill="#FF3B26"/>
<path d="M23.0004 12.791H21.793V19.9133H23.0004V12.791Z" fill="#FF3B26"/>
<path d="M9.65625 16.8927C9.65625 22.0288 13.788 26.2077 18.8662 26.2077C23.9444 26.2077 28.0761 22.0288 28.0761 16.8927C28.0761 11.7566 23.9444 7.57764 18.8662 7.57764C13.788 7.57764 9.65625 11.7566 9.65625 16.8927ZM26.7427 16.8927C26.7427 21.2853 23.2093 24.8608 18.8644 24.8608C14.5196 24.8608 10.9862 21.2871 10.9862 16.8927C10.9862 12.4983 14.5196 8.92452 18.8644 8.92452C23.2093 8.92452 26.7427 12.4983 26.7427 16.8927Z" fill="#FF3B26"/>
<path d="M32.3173 27.4306L31.0797 28.6823L27.7416 25.2182C29.7498 23.0308 30.9803 20.1054 30.9803 16.8926C30.9803 14.6478 30.4583 12.6616 29.3841 10.8209L29.1994 10.5048L28.0577 11.2231L28.2264 11.523C29.1443 13.1537 29.6291 15.0106 29.6291 16.8926C29.6291 22.8925 24.8031 27.7736 18.8691 27.7736C12.9351 27.7736 8.11081 22.8925 8.11081 16.8926C8.11081 10.8927 12.9368 6.00979 18.8691 6.00979C20.3126 6.00979 21.7171 6.29533 23.0417 6.85923L23.34 6.98673L23.9561 5.81943L23.6081 5.6614C22.0527 4.95563 20.5914 4.64136 18.8691 4.64136C12.1911 4.64136 6.75781 10.1366 6.75781 16.8908C6.75781 23.645 12.1911 29.1403 18.8691 29.1403C21.8929 29.1403 24.6592 28.0107 26.7828 26.152L30.1387 29.6323L28.7804 31.0062L38.214 40.5475L41.7528 36.9684L32.3191 27.427L32.3173 27.4306ZM30.6625 31.0098L32.3173 29.336L39.8671 36.972L38.2122 38.6457L30.6625 31.0098Z" fill="#FF3B26"/>
</svg>
